<svg xmlns="http://www.w3.org/2000/svg" width="26" height="27.338"><path d="M13 0l-2.856 4.881-5.178-2.27.559 5.627L0 9.445l3.76 4.224L0 17.893 5.525 19.1l-.559 5.627 5.178-2.27L13 27.338l2.856-4.881 5.179 2.27-.56-5.627L26 17.893l-3.76-4.224L26 9.445l-5.525-1.207.56-5.627-5.18 2.27L13 0zM7.148 5.673c5.226 3.056 6.173 3.1 11.618 0-1.292 5.866-1.1 6.624 3.59 11.05-6.19.573-7.009 1.147-9.4 6.83-2.478-5.639-3.341-6.213-9.4-6.83 4.603-4.295 4.97-5.228 3.592-11.05zm1.395 1.921c.786 4.38.42 5.264-2.728 8.395 4.08.6 5.346 1.298 7.141 5.189 2.035-4.142 2.702-4.535 7.142-5.189-3.083-3.231-3.49-4.33-2.728-8.395-3.83 1.919-5.206 2.017-8.827 0zm1.35 1.857c2.339 1.094 3.817 1.026 6.128 0-.443 2.56-.028 3.76 1.894 5.829-2.734.367-3.808 1.25-4.959 3.602-1.334-2.352-2.387-3.055-4.958-3.602 1.705-2 2.222-3.355 1.894-5.829zm1.078 1.486c.125 1.515-.166 2.48-1.227 3.775 1.447.268 2.435.986 3.212 2.335.615-1.219 1.617-2.14 3.213-2.335-.983-1.122-1.601-2.422-1.227-3.775-1.497.621-2.586.622-3.97 0z"/></svg>