<svg xmlns="http://www.w3.org/2000/svg" width="22" height="22.034"><path style="text-indent:0;text-align:start;line-height:normal;text-transform:none;block-progression:tb;marker:none;-inkscape-font-specification:Sans" d="M1 0C.74 0 .479.108.294.293A1.013 1.013 0 0 0 0 1.001v20.032c0 .262.108.523.293.708.185.185.446.293.708.293h19.998c.262 0 .523-.108.708-.293.185-.185.293-.446.293-.708V7.34c0-.694-.208-1.587-.958-2.337L17.389 1.35C16.496.457 15.547 0 14.566 0zm7.964 1.97h2.712c.238 0 .454.217.454.455v4.412a.473.473 0 0 1-.454.455H8.964a.473.473 0 0 1-.455-.455V2.425c0-.238.216-.455.455-.455zM2 2.001H4v6.26c0 .262.107.523.292.708.186.185.446.293.708.293h8.051c.262 0 .523-.108.708-.293.186-.185.293-.446.293-.708V2.004c.41.017 1.284.125 1.921.762l3.653 3.653c.243.243.373.752.373.92v12.694H18.04v-6.26c0-.262-.108-.522-.293-.708a1.013 1.013 0 0 0-.707-.293H5c-.262 0-.522.108-.707.293a1.013 1.013 0 0 0-.293.708v6.26H2zm4 12.773h10.038v5.259H6.001z" font-weight="400" color="#000" overflow="visible" font-family="Sans"/></svg>